<?xml version="1.0" encoding="iso-8859-1"?>
<!-- Generator: Adobe Illustrator 19.0.0, SVG Export Plug-In . SVG Version: 6.00 Build 0)  -->
<svg version="1.1" id="Capa_1" xmlns="http://www.w3.org/2000/svg" xmlns:xlink="http://www.w3.org/1999/xlink" x="0px" y="0px"
	 viewBox="0 0 511 511" style="enable-background:new 0 0 511 511;" xml:space="preserve">
<g>
	<path d="M47.5,343h40c4.142,0,7.5-3.358,7.5-7.5s-3.358-7.5-7.5-7.5h-40c-4.142,0-7.5,3.358-7.5,7.5S43.358,343,47.5,343z"/>
	<path d="M151.5,360h-104c-4.142,0-7.5,3.358-7.5,7.5s3.358,7.5,7.5,7.5h104c4.142,0,7.5-3.358,7.5-7.5S155.642,360,151.5,360z"/>
	<path d="M215.5,360h-40c-4.142,0-7.5,3.358-7.5,7.5s3.358,7.5,7.5,7.5h40c4.142,0,7.5-3.358,7.5-7.5S219.642,360,215.5,360z"/>
	<path d="M151.5,328h-40c-4.142,0-7.5,3.358-7.5,7.5s3.358,7.5,7.5,7.5h40c4.142,0,7.5-3.358,7.5-7.5S155.642,328,151.5,328z"/>
	<path d="M215.5,328h-40c-4.142,0-7.5,3.358-7.5,7.5s3.358,7.5,7.5,7.5h40c4.142,0,7.5-3.358,7.5-7.5S219.642,328,215.5,328z"/>
	<path d="M279.5,328h-40c-4.142,0-7.5,3.358-7.5,7.5s3.358,7.5,7.5,7.5h40c4.142,0,7.5-3.358,7.5-7.5S283.642,328,279.5,328z"/>
	<path d="M55.5,295h32c8.547,0,15.5-6.953,15.5-15.5v-24c0-8.547-6.953-15.5-15.5-15.5h-32c-8.547,0-15.5,6.953-15.5,15.5v24
		C40,288.047,46.953,295,55.5,295z M88,255.5v24c0,0.275-0.224,0.5-0.5,0.5H79v-25h8.5C87.776,255,88,255.225,88,255.5z M55,255.5
		c0-0.275,0.224-0.5,0.5-0.5H64v25h-8.5c-0.276,0-0.5-0.225-0.5-0.5V255.5z"/>
	<path d="M267.5,240h-24c-15.164,0-27.5,12.336-27.5,27.5s12.336,27.5,27.5,27.5h24c15.164,0,27.5-12.336,27.5-27.5
		S282.664,240,267.5,240z M267.5,280h-24c-6.893,0-12.5-5.607-12.5-12.5s5.607-12.5,12.5-12.5h24c6.893,0,12.5,5.607,12.5,12.5
		S274.393,280,267.5,280z"/>
	<path d="M463.5,232h-40c-4.142,0-7.5,3.358-7.5,7.5s3.358,7.5,7.5,7.5h40c4.142,0,7.5-3.358,7.5-7.5S467.642,232,463.5,232z"/>
	<path d="M463.5,264h-104c-4.142,0-7.5,3.358-7.5,7.5s3.358,7.5,7.5,7.5h104c4.142,0,7.5-3.358,7.5-7.5S467.642,264,463.5,264z"/>
	<path d="M359.5,247h40c4.142,0,7.5-3.358,7.5-7.5s-3.358-7.5-7.5-7.5h-40c-4.142,0-7.5,3.358-7.5,7.5S355.358,247,359.5,247z"/>
	<path d="M511,135.498V127.5c0-17.369-14.131-31.5-31.5-31.5h-264c-17.369,0-31.5,14.131-31.5,31.5V192H31.5
		C14.131,192,0,206.131,0,223.5v160C0,400.869,14.131,415,31.5,415h264c17.369,0,31.5-14.131,31.5-31.5V319h152.5
		c17.369,0,31.5-14.131,31.5-31.5V135.502C511,135.501,511,135.499,511,135.498z M496,160h-6.394l6.394-6.394V160z M449.606,160
		l17-17h18.787l-17,17H449.606z M409.606,160l17-17h18.787l-17,17H409.606z M369.606,160l17-17h18.787l-17,17H369.606z M329.606,160
		l17-17h18.787l-17,17H329.606z M289.606,160l17-17h18.787l-17,17H289.606z M249.606,160l17-17h18.787l-17,17H249.606z M209.606,160
		l17-17h18.787l-17,17H209.606z M199,143h6.394L199,149.394V143z M215.5,111h264c9.098,0,16.5,7.402,16.5,16.5v0.5H199v-0.5
		C199,118.402,206.402,111,215.5,111z M312,383.5c0,9.098-7.402,16.5-16.5,16.5h-264c-9.098,0-16.5-7.402-16.5-16.5v-160
		c0-9.098,7.402-16.5,16.5-16.5h192h72c9.098,0,16.5,7.402,16.5,16.5V383.5z M479.5,304H327v-25h8.5c4.142,0,7.5-3.358,7.5-7.5
		s-3.358-7.5-7.5-7.5H327v-17h8.5c4.142,0,7.5-3.358,7.5-7.5s-3.358-7.5-7.5-7.5H327v-8.5c0-6.046-1.716-11.698-4.681-16.5H471.5
		c4.142,0,7.5-3.358,7.5-7.5s-3.358-7.5-7.5-7.5h-176h-72H199v-17h297v112.5C496,296.598,488.598,304,479.5,304z"/>
</g>
<g>
</g>
<g>
</g>
<g>
</g>
<g>
</g>
<g>
</g>
<g>
</g>
<g>
</g>
<g>
</g>
<g>
</g>
<g>
</g>
<g>
</g>
<g>
</g>
<g>
</g>
<g>
</g>
<g>
</g>
</svg>
